P1
# Black & white Linux logo: Tux holding F&S Logo
80 80
1111111111111111111111111111111111111111111111111111111111111111111111
1111111111
1111111111111111111111111111111111111111111111111111111111111111111111
1111111111
1111111111111111111111111111111111110000000011111111111111111111111111
1111111111
1111111111111111111111111111111111001111111100111111111111111111111111
1111111111
1111111111111111111111111111111110111111111111001111111111111111111111
1111111111
1111111111111111111111111111111101111111111111110111111111111111111111
1111111111
1111111111111111111111111111111011111111111111111011111111111111111111
1111111111
1111111111111111111111111111110111111111111100111101111111111111111111
1111111111
1111111111111111111111111111110111111111111101111110111111111111111111
1111111111
1111111111111111111111111111110111111111111111111110111111111111111111
1111111111
1111111111111111111111111111101111111111111111111110111111111111111111
1111111111
1111111111111111111111111111101111111111111111111111011111111111111111
1111111111
1111111111111111111111111111101111111111111111111111011111111111111111
1111111111
1111111111111111111111111111101111111111111111111111011111111111111111
1111111111
1111111111111111111111111111101110011111100001111111101111111111111111
1111111111
1111111111111111111111111111101100001111000000111111101111111111111111
1111111111
1111111111111111111111111111101101100111001100111111101111111111111111
1111111111
1111111111111111111111111111101111100111011110011111101111111111111111
1111111111
1111111111111111111111111111101111110111011110011111101111111111111111
1111111111
1111111111111111111111111111101111111111111110011111011111111111111111
1111111111
1111111111111111111111111111101101100000001110111111011111111111111111
1111111111
1111111111111111111111111111101110001001000001111111101111111111111111
1111111111
1111111111111111111111111111101100000000000000111111101111111111111111
1111111111
1111111111111111111111111111101100000000000011011111101111111111111111
1111111111
1111111111111111111111111111101110000000001100111111110111111111111111
1111111111
1111111111111111111111111111101111000000110000111111110111111111111111
1111111111
1111111111111111111111111111101111111111000011011101110111111111111111
1111111111
1111111111111111111111111111101101000000001100011110111011111111111111
1111111111
1111111111111111111111111111011100100000110000011110111011111111111111
1111111111
1111111111111111111111111111011100011111000000001111111101111111111111
1111111111
1111111111111111111111111110111100000000000000000111111110111111111111
1111111111
1111111111111111111111111110111000000000000000000111111110111111111111
1111111111
1111111111111111111111111101111000000000000000000111111111011111111111
1111111111
1111111111111111111111111011110000000000000000000011111111101111111111
1111111111
1111111111111111111111110111110000000000000000000011111111110111111111
1111111111
1111111111111111111111110111110000000000000000000001111111110111111111
1111111111
1111111111111111111111101110000000000000000000000000011111111011111111
1111111111
1111111111111111111111011101111111111111000111111111101111111101111111
1111111111
1111111111111111111111011011010101010101000010101010110111111101111111
1111111111
1111111111111111111110111010111111111111000111111111010111111110111111
1111111111
1111111111111111111110111011110000000111000011111111110111111110111111
1111111111
1111111111111111111101111010110000000111000011111111010110111111011111
1111111111
1111111111111111111101111011110011111111000001111111110110111111011111
1111111111
1111111111111111111011111010110011111111000001111111010111011111101111
1111111111
1111111111111111111011111011110011111111000000111111110111011111101111
1111111111
1111111111111111110111111010110000001110001000011111010111011111101111
1111111111
1111111111111111110111111011110000001110001100000111110111101111110111
1111111111
1111111111111111110111111010110011111110001110000001010111101111110111
1111111111
1111111111111111101111110011110011111110001111000000000111101111110111
1111111111
1111111111111111101111110010110011111110001111110000000111101111110111
1111111111
1111111111111111101111110011110011111110001111111110000111101111110111
1111111111
1111111111111111101111110000011111111100011100000011010111101111110111
1111111111
1111111111111111101111110000000011111100011000000001110100000011110111
1111111111
1111111111111111101111110000000000111100011001111001010011111101110111
1111111111
1111111111111111101000111010100000011100011001111111111111111111110111
1111111111
1111111111111111110000011101111000001100011000001111000111111111001111
1111111111
1111111111111111100000001110111110000100011100000011000011111110001111
1111111111
1111111111111111000000000111011111000000111111000001000011111100001111
1111111111
1111111111111110000000000011100111100000111111111001000001111000001111
1111111111
1111111111110000000000000011111011100000111001111000000000000000001111
1111111111
1111111111000000000000000001111101110000111000000000000000000000001111
1111111111
1111111111000000000000000001111110110000111100000010000000000000000111
1111111111
1111111111000000000000000000111110111000111111111110000000000000000001
1111111111
1111111111000000000000000000011110010000101010101010000000000000000000
1111111111
1111111111000000000000000000011101111000111111111110000000000000000000
0111111111
1111111111000000000000000000001000000000000000000000000000000000000000
0111111111
1111111111000000000000000000000100000000000000011110000000000000000000
0111111111
1111111111000000000000000000000010000000000001111110000000000000000000
1111111111
1111111111000000000000000000000010000000001111111110000000000000000011
1111111111
1111111111000000000000000000000001111111111111111100000000000000000111
1111111111
1111111111000000000000000000000001111111111111111100000000000000011111
1111111111
1111111111100000000000000000000001111111111111111100000000000000111111
1111111111
1111111111111100000000000000000001111111111111111100000000000011111111
1111111111
1111111111111111110000000000000001110000000000001100000000000111111111
1111111111
1111111111111111111111000000000010001111111111110010000000001111111111
1111111111
1111111111111111111111110000000111111111111111111110000000011111111111
1111111111
1111111111111111111111111111111111111111111111111111111111111111111111
1111111111
1111111111111111111111111111111111111111111111111111111111111111111111
1111111111
1111111111111111111111111111111111111111111111111111111111111111111111
1111111111
1111111111111111111111111111111111111111111111111111111111111111111111
1111111111
